<?xml version="1.0" standalone="no"?>
<!DOCTYPE svg PUBLIC "-//W3C//DTD SVG 20010904//EN"
 "http://www.w3.org/TR/2001/REC-SVG-20010904/DTD/svg10.dtd">
<svg version="1.0" xmlns="http://www.w3.org/2000/svg"
 width="2080.000000pt" height="2080.000000pt" viewBox="0 0 2080.000000 2080.000000"
 preserveAspectRatio="xMidYMid meet">
<metadata>
Created by potrace 1.14, written by Peter Selinger 2001-2017
</metadata>
<g transform="translate(0.000000,2080.000000) scale(0.100000,-0.100000)"
fill="#000000" stroke="none">
<path d="M4320 14548 c-14 -6 -39 -17 -57 -24 -17 -8 -33 -14 -36 -14 -20 0
-427 -200 -447 -220 -3 -3 -30 -18 -60 -34 -30 -16 -113 -65 -184 -110 -71
-44 -143 -89 -160 -100 -17 -10 -33 -21 -36 -25 -3 -3 -13 -10 -22 -16 -27
-16 -160 -107 -198 -136 -19 -14 -80 -59 -135 -100 -55 -40 -125 -92 -155
-116 -30 -24 -59 -47 -65 -51 -45 -35 -211 -168 -215 -172 -3 -3 -41 -35 -85
-70 -44 -36 -86 -73 -93 -82 -7 -10 -17 -18 -22 -18 -4 0 -24 -15 -43 -32 -20
-18 -61 -55 -93 -83 -31 -27 -67 -59 -79 -70 -13 -11 -40 -35 -62 -54 -205
-179 -504 -463 -832 -792 -245 -244 -521 -528 -521 -535 0 -1 -30 -33 -67 -72
-38 -39 -95 -100 -128 -137 -75 -82 -96 -106 -165 -181 -30 -33 -84 -93 -120
-134 -71 -79 -72 -81 -145 -165 -27 -32 -56 -64 -63 -72 -7 -7 -10 -13 -6 -13
4 0 0 -6 -9 -13 -16 -11 -10 -17 50 -52 37 -21 71 -38 75 -37 3 1 12 -5 18
-13 7 -8 16 -15 21 -15 4 0 34 -15 66 -34 32 -18 79 -45 105 -60 76 -42 138
-76 208 -116 36 -20 72 -39 80 -43 8 -5 33 -19 55 -32 22 -13 65 -36 95 -52
30 -15 57 -30 60 -33 7 -7 42 -26 130 -74 41 -22 77 -43 78 -48 2 -4 12 -8 23
-8 10 0 19 -4 19 -8 0 -4 15 -15 32 -23 18 -8 71 -37 118 -63 47 -27 103 -58
125 -70 22 -11 42 -23 45 -26 5 -5 41 -25 135 -74 27 -15 58 -34 68 -44 11 -9
22 -16 26 -16 8 2 35 -8 41 -15 3 -3 15 -11 26 -18 21 -11 31 -1 150 145 71
86 139 168 150 182 12 14 41 48 64 75 23 28 56 66 73 86 18 19 55 61 82 93 28
32 61 71 75 86 14 15 50 56 81 91 31 35 74 83 95 106 22 22 82 88 134 145 99
108 665 678 673 678 2 0 29 24 59 53 50 47 176 162 248 227 56 50 137 120 220
190 47 39 96 81 110 93 14 12 43 36 64 52 21 17 48 38 60 49 11 10 48 39 81
64 33 25 62 49 65 52 3 4 32 26 65 51 33 24 62 46 65 49 3 3 26 21 53 40 26
19 56 42 66 50 11 8 29 22 41 30 12 8 30 22 40 30 10 8 26 21 37 28 134 91
250 173 260 181 7 6 24 16 38 21 14 5 25 14 25 20 0 5 5 10 11 10 7 0 32 15
58 33 25 17 58 38 74 46 15 8 27 18 27 23 0 4 5 8 11 8 6 0 30 14 54 30 24 17
48 30 54 30 6 0 11 4 11 8 0 5 16 14 35 22 19 8 35 17 35 20 0 4 27 20 60 36
33 16 60 32 60 36 0 3 12 11 28 17 15 6 47 23 72 37 125 71 419 216 565 276
99 41 98 41 138 53 16 4 25 11 20 16 -8 7 -56 32 -388 202 -77 40 -142 74
-145 77 -12 12 -181 95 -184 90 -2 -3 -12 2 -22 11 -11 9 -100 58 -199 109
-163 83 -238 122 -555 287 -52 27 -104 54 -115 60 -47 24 -67 34 -137 71 -91
49 -107 53 -138 40z"/>
<path d="M10489 14453 c-28 -27 -66 -61 -83 -78 -35 -33 -76 -68 -151 -130
-27 -22 -54 -46 -61 -52 -7 -7 -15 -13 -18 -13 -3 0 -17 -11 -33 -26 -27 -25
-235 -186 -276 -214 -12 -8 -56 -40 -97 -70 -83 -62 -88 -65 -191 -135 -41
-27 -76 -52 -79 -55 -6 -7 -271 -181 -350 -230 -30 -19 -61 -40 -68 -47 -7 -7
-18 -13 -23 -13 -6 0 -25 -11 -43 -25 -18 -14 -38 -25 -44 -25 -7 0 -12 -4
-12 -9 0 -5 -8 -12 -17 -15 -10 -3 -27 -12 -38 -19 -103 -64 -297 -177 -304
-177 -5 0 -11 -4 -13 -8 -1 -5 -39 -28 -83 -53 -44 -24 -88 -48 -97 -54 -9 -5
-36 -21 -60 -34 -63 -34 -147 -80 -198 -109 -142 -78 -262 -140 -274 -140 -5
0 -12 -4 -15 -9 -3 -5 -51 -31 -106 -58 -55 -27 -112 -58 -127 -68 -16 -10
-28 -16 -28 -13 0 3 -15 -3 -32 -14 -30 -17 -95 -51 -108 -55 -4 -1 -274 -132
-450 -218 -36 -18 -67 -34 -70 -37 -3 -3 -48 -27 -100 -54 -128 -65 -364 -198
-371 -209 -3 -5 -9 -8 -13 -8 -3 1 -31 -14 -61 -34 -31 -19 -58 -35 -61 -35
-3 0 -35 -19 -72 -43 -37 -24 -98 -63 -137 -87 -38 -25 -72 -47 -75 -50 -3 -3
-17 -11 -32 -19 -15 -8 -37 -23 -48 -33 -11 -10 -20 -16 -20 -12 0 4 -8 0 -17
-8 -10 -8 -79 -57 -153 -108 -74 -51 -178 -125 -230 -164 -52 -39 -98 -69
-102 -68 -5 1 -8 -2 -8 -7 0 -5 -16 -19 -35 -31 -20 -12 -41 -27 -48 -34 -6
-6 -32 -27 -57 -46 -25 -19 -54 -43 -64 -52 -11 -10 -23 -18 -27 -18 -4 0 -14
-7 -22 -15 -8 -8 -50 -43 -94 -77 -43 -34 -83 -67 -89 -72 -7 -6 -26 -22 -44
-36 -18 -14 -37 -30 -44 -35 -6 -6 -56 -48 -111 -95 -55 -46 -111 -94 -125
-107 -36 -32 -67 -60 -145 -128 -37 -33 -83 -75 -101 -92 -19 -18 -39 -33 -45
-33 -5 0 -7 -4 -4 -10 3 -5 2 -10 -3 -10 -30 0 -687 -663 -907 -915 -27 -32
-57 -66 -65 -75 -8 -9 -35 -41 -60 -70 -25 -30 -55 -64 -68 -77 -12 -13 -22
-27 -22 -30 0 -3 -10 -15 -22 -27 -13 -12 -33 -36 -46 -54 l-22 -32 25 -6 c14
-3 29 -11 33 -18 4 -6 25 -20 47 -31 22 -11 109 -60 195 -109 85 -49 173 -98
195 -109 22 -11 42 -22 45 -26 3 -3 18 -13 35 -21 26 -13 352 -197 579 -327
44 -25 94 -53 110 -63 76 -42 172 -96 188 -105 9 -5 38 -21 65 -35 26 -14 50
-28 51 -32 2 -5 8 -8 12 -8 5 0 34 -15 66 -34 l56 -34 76 91 c148 178 376 408
572 577 14 12 36 31 50 43 49 43 168 142 196 164 16 12 38 30 49 40 11 10 47
38 80 63 33 25 62 48 65 51 3 3 37 29 75 57 39 29 81 61 95 71 29 22 148 109
180 131 12 8 47 33 78 55 32 23 104 72 162 110 58 39 107 73 110 76 7 8 296
192 320 204 11 5 20 13 20 17 0 5 4 8 10 8 5 0 45 23 88 50 43 28 83 50 89 50
5 0 18 9 28 20 10 11 22 20 27 20 5 0 32 15 61 33 29 19 73 45 98 59 84 47 94
53 99 58 6 6 53 32 120 67 25 13 61 33 80 45 19 11 69 39 110 61 41 22 82 46
91 53 9 8 19 11 22 7 4 -3 7 -1 7 5 0 7 9 12 19 12 11 0 21 4 23 8 2 5 71 44
153 86 83 43 154 82 159 87 6 5 18 9 27 9 10 0 19 4 21 8 2 4 59 36 128 71
134 68 317 163 409 213 31 17 103 56 160 86 58 30 167 90 244 133 76 43 148
81 158 84 10 4 19 11 19 16 0 5 4 9 9 9 7 0 158 82 201 110 8 5 60 35 115 67
55 31 102 60 105 63 5 5 14 10 89 52 20 11 55 33 79 49 24 16 46 29 49 29 3 0
20 11 37 24 17 13 41 26 54 30 12 4 22 12 22 17 0 5 5 9 10 9 6 0 23 8 38 19
71 49 284 181 291 181 5 0 24 13 42 30 19 16 40 30 47 30 6 0 12 5 12 10 0 6
5 10 10 10 11 0 63 34 88 58 7 6 20 12 28 12 8 0 14 4 14 8 0 4 23 21 50 37
28 16 50 33 50 37 0 4 4 8 10 8 5 0 48 27 94 60 47 33 89 60 94 60 6 0 12 4
14 8 2 5 32 28 68 53 36 24 67 46 70 49 3 3 46 35 95 70 96 69 213 154 230
168 6 4 48 37 95 72 47 36 87 67 90 70 3 3 21 17 42 32 20 15 42 33 50 40 7 7
29 25 48 39 19 15 45 35 57 45 12 11 36 30 53 44 17 14 42 34 54 45 13 11 36
31 52 44 26 22 142 121 170 146 72 63 184 170 184 176 0 8 -175 109 -190 109
-5 0 -10 5 -10 10 0 6 -7 10 -15 10 -8 0 -15 5 -15 10 0 6 -9 10 -19 10 -11 0
-21 4 -23 9 -1 4 -32 24 -68 44 -36 19 -211 119 -388 221 -178 102 -328 186
-333 186 -5 0 -9 4 -9 8 0 5 -17 16 -37 26 -21 10 -49 25 -63 34 -14 9 -27 17
-30 17 -3 0 -21 10 -40 21 -29 18 -127 75 -265 154 -16 9 -54 31 -83 49 -29
17 -55 31 -58 31 -2 0 -21 11 -42 23 -41 26 -122 73 -164 94 -15 8 -30 18 -33
24 -12 18 -35 8 -86 -38z"/>
<path d="M16510 14279 c-8 -12 -28 -35 -43 -53 -49 -55 -61 -69 -142 -166 -75
-89 -117 -138 -140 -164 -5 -6 -57 -65 -115 -131 -110 -125 -153 -175 -207
-233 -18 -19 -33 -38 -33 -43 0 -4 -9 -11 -20 -14 -11 -3 -20 -10 -20 -15 0
-20 -480 -507 -654 -665 -49 -44 -96 -87 -105 -95 -9 -9 -47 -43 -86 -75 -38
-33 -79 -68 -90 -79 -27 -25 -208 -174 -259 -213 -133 -102 -303 -234 -313
-243 -7 -5 -17 -10 -23 -10 -5 0 -10 -4 -10 -8 0 -4 -13 -16 -30 -25 -16 -10
-35 -23 -42 -30 -7 -7 -30 -23 -51 -36 -21 -13 -43 -28 -50 -35 -22 -22 -436
-296 -462 -306 -14 -5 -25 -14 -25 -19 0 -5 -10 -13 -22 -17 -13 -4 -25 -9
-28 -13 -3 -3 -14 -11 -25 -18 -11 -7 -66 -41 -123 -75 -171 -105 -176 -108
-192 -115 -8 -4 -17 -9 -20 -12 -3 -4 -16 -12 -30 -19 -14 -7 -42 -22 -62 -35
-21 -12 -56 -33 -80 -45 -23 -13 -76 -44 -118 -68 -43 -24 -82 -44 -88 -44 -7
0 -12 -4 -12 -9 0 -5 -16 -15 -35 -22 -19 -7 -35 -17 -35 -21 0 -4 -9 -8 -19
-8 -11 0 -21 -4 -23 -8 -8 -21 -805 -427 -1173 -597 -38 -18 -110 -52 -160
-75 -49 -23 -119 -55 -155 -71 -36 -17 -72 -34 -80 -40 -8 -5 -22 -12 -30 -15
-78 -30 -775 -377 -940 -468 -47 -26 -110 -59 -140 -74 -30 -15 -56 -30 -58
-34 -2 -5 -10 -8 -17 -8 -8 0 -20 -6 -27 -12 -7 -7 -29 -21 -48 -30 -19 -10
-62 -33 -95 -52 -33 -19 -72 -41 -86 -49 -94 -51 -336 -194 -347 -204 -7 -7
-18 -13 -24 -13 -5 0 -33 -15 -61 -34 -48 -30 -166 -103 -220 -134 -40 -22
-302 -191 -314 -202 -7 -5 -15 -10 -18 -10 -4 0 -21 -11 -39 -25 -18 -14 -38
-25 -44 -25 -7 0 -12 -3 -12 -7 0 -5 -23 -21 -50 -38 -28 -16 -50 -32 -50 -36
0 -4 -8 -9 -17 -13 -18 -6 -54 -27 -63 -36 -3 -3 -67 -48 -143 -100 -146 -101
-362 -255 -442 -318 -5 -4 -35 -25 -65 -47 -30 -22 -57 -42 -60 -45 -3 -3 -32
-25 -65 -50 -33 -25 -62 -47 -65 -50 -3 -3 -34 -27 -70 -55 -68 -52 -94 -73
-114 -90 -6 -5 -45 -37 -86 -70 -83 -67 -94 -76 -200 -167 -41 -35 -88 -75
-104 -89 -85 -72 -229 -206 -335 -310 l-98 -96 56 -30 c54 -29 219 -116 311
-164 25 -13 47 -26 50 -29 3 -3 32 -19 65 -36 121 -61 230 -119 235 -124 3 -3
25 -15 50 -27 25 -12 88 -45 140 -74 52 -28 138 -73 190 -101 52 -28 113 -60
135 -73 22 -12 81 -44 130 -70 130 -69 198 -105 308 -164 112 -61 95 -64 189
33 27 27 48 46 48 43 0 -2 20 14 44 37 56 53 74 69 203 171 60 48 121 97 137
111 15 13 30 24 33 24 3 0 34 23 69 50 35 28 68 50 74 50 5 0 10 5 10 10 0 6
5 10 11 10 6 0 16 6 23 13 8 6 22 18 32 25 11 7 68 46 127 87 60 41 113 75
118 75 5 0 9 5 9 11 0 5 4 8 9 5 5 -3 11 1 15 9 3 8 10 15 15 15 5 0 49 26 98
58 105 67 97 63 238 149 143 89 147 91 165 99 8 4 17 10 20 13 3 4 16 12 30
19 39 21 81 45 125 72 22 14 43 24 48 22 4 -1 7 2 7 8 0 5 7 10 15 10 8 0 15
5 15 10 0 6 5 10 11 10 5 0 53 25 105 55 53 30 99 55 104 55 4 0 13 7 20 15 7
9 15 13 18 11 3 -3 17 3 31 13 14 10 60 36 101 58 41 23 102 55 135 73 33 18
116 62 185 97 69 36 131 70 138 75 6 6 12 7 12 3 0 -5 8 -2 18 6 9 8 85 48
167 89 83 41 151 78 153 83 2 4 9 7 15 7 15 0 101 43 105 53 2 4 10 7 18 7 11
0 55 21 99 48 6 4 16 7 24 9 8 1 17 5 20 10 3 4 15 10 26 11 11 2 21 8 23 12
2 5 20 14 40 21 20 6 39 15 42 18 5 6 42 25 175 86 44 21 123 58 175 83 179
85 245 115 250 116 3 1 31 14 62 29 76 36 111 51 121 49 4 -1 7 2 7 8 0 5 4
10 10 10 9 0 38 13 198 86 41 19 79 34 86 34 6 0 18 6 25 12 6 7 15 13 19 14
11 1 63 23 112 48 25 12 47 23 50 24 3 0 36 14 73 31 38 17 74 31 80 31 7 0
21 7 31 15 11 8 28 15 37 15 10 0 19 5 21 10 2 6 13 12 26 13 12 0 22 4 22 7
0 5 63 33 80 35 3 0 25 10 50 22 25 12 74 34 110 50 82 36 490 241 510 256 8
7 38 23 65 37 28 13 52 27 55 31 3 3 37 23 75 44 39 20 77 43 85 50 8 7 20 14
25 16 22 9 160 94 163 101 2 5 7 8 12 8 5 0 35 17 67 38 32 21 87 57 123 80
36 22 70 45 75 49 6 4 44 30 85 57 41 27 85 59 98 70 12 11 22 16 22 13 0 -4
8 0 18 9 9 8 103 77 207 152 105 75 195 141 201 147 7 5 24 19 40 30 21 15
208 159 289 222 27 21 121 98 125 103 3 3 25 21 50 40 25 19 47 37 50 40 3 3
27 24 55 45 27 22 63 52 80 67 16 14 80 68 140 120 61 51 112 95 115 98 3 3
43 39 90 80 96 85 148 132 195 175 18 17 65 59 105 95 40 36 110 102 157 148
47 45 86 82 88 82 1 0 64 61 139 136 l137 135 112 -54 c62 -30 130 -63 152
-72 22 -9 49 -20 60 -25 60 -26 225 -80 295 -95 8 -2 15 -4 15 -5 0 -1 7 -3
15 -5 74 -18 148 -34 184 -40 15 -2 37 -7 47 -10 11 -4 36 -9 57 -11 20 -2 55
-7 77 -10 41 -5 47 -6 175 -20 96 -10 487 -10 605 0 50 5 113 10 140 11 28 2
50 4 50 5 0 1 18 4 40 6 41 5 204 30 241 38 12 2 39 7 60 10 22 4 46 8 54 11
8 2 26 6 40 9 14 2 48 10 75 16 28 6 59 14 70 16 11 3 31 7 45 10 14 2 32 7
40 11 18 8 17 7 60 17 19 4 55 15 80 23 25 8 54 17 65 19 18 3 36 9 90 30 11
4 23 8 28 9 4 2 8 3 10 5 1 1 9 3 18 5 34 6 194 70 201 80 6 9 -15 24 -72 51
-8 4 -60 33 -115 63 -55 31 -113 63 -130 71 -16 8 -32 17 -35 20 -3 3 -14 10
-25 16 -11 6 -42 23 -70 39 -27 15 -79 43 -114 62 -35 18 -69 37 -75 42 -6 5
-45 26 -86 48 -41 22 -127 70 -191 105 -63 36 -125 69 -137 72 -12 4 -22 12
-22 17 0 5 -5 9 -10 9 -6 0 -61 29 -123 63 -61 35 -119 67 -127 71 -8 4 -33
18 -55 31 -22 13 -60 34 -85 46 -25 12 -47 24 -50 28 -3 3 -23 15 -45 26 -22
11 -42 22 -45 25 -3 3 -25 16 -50 29 -25 13 -77 41 -116 62 -38 20 -108 59
-155 86 -46 27 -100 56 -119 66 -19 10 -42 22 -50 27 -15 10 -274 154 -405
225 -38 21 -82 47 -97 57 -16 11 -28 16 -28 13 0 -3 -12 2 -27 13 -16 10 -41
26 -58 34 -44 22 -108 59 -122 70 -7 6 -13 7 -13 2 0 -5 -4 -4 -8 2 -4 6 -43
30 -87 54 -202 110 -227 123 -275 152 -19 11 -60 34 -90 50 -81 43 -219 120
-350 193 -41 23 -111 62 -155 85 -44 24 -96 53 -115 65 -56 35 -74 38 -90 14z"/>
</g>
</svg>
