<svg width="262" height="26" viewBox="0 0 262 26" fill="none" xmlns="http://www.w3.org/2000/svg"><path d="M19.423 3.01L13.614 0C7.894 2.06 0 11.457 0 11.457l5.434 3.038C13.044 4.99 19.424 3.01 19.424 3.01zm19.537.607L32.951.171s-2.917 3.05-10.469 6.653C14.931 10.427 9.911 16.922 9.911 16.922l5.328 3.01s2.358-3.524 11.154-8C35.19 7.457 38.96 3.617 38.96 3.617zm-3.82 9.466c-9.91 4.557-14.629 9.595-14.629 9.595l5.532 2.956c2.962-2.97 9.92-6.456 16.016-9.069 6.095-2.613 12.1-8.855 12.1-8.855 4.519 2.506 10.057.05 10.057.05L51.659.805c-3.648 4.318-6.607 7.722-16.518 12.279zM72 6.88h7.315v18.758h8.527V6.88h7.352V.253H72V6.88zm23.905 6.048c0 7.568 5.954 13.072 14.151 13.072s14.151-5.54 14.151-13.072C124.207 5.432 118.253 0 110.056 0S95.905 5.396 95.905 12.928zm8.748.036c0-3.477 2.536-5.975 5.513-5.975 2.941 0 5.293 2.498 5.293 5.975 0 3.476-2.352 6.047-5.293 6.047-2.94 0-5.513-2.57-5.513-6.047zm21.753 0c0 7.532 5.881 13.036 13.967 13.036 3.676 0 8.418-1.376 11.285-3.26V12.277h-7.315v5.902c-1.25.507-2.5.833-3.382.833-3.345 0-5.807-2.535-5.807-6.047 0-3.44 2.426-5.975 5.734-5.975 2.132 0 4.631 1.05 6.359 2.68l4.815-5.758C149.305 1.52 144.931 0 140.925 0c-8.418 0-14.519 5.468-14.519 12.964zm28.239-.036c0 7.568 5.955 13.072 14.151 13.072 8.197 0 14.152-5.54 14.152-13.072C182.948 5.432 176.993 0 168.796 0c-8.196 0-14.151 5.396-14.151 12.928zm8.748.036c0-3.477 2.536-5.975 5.514-5.975 2.94 0 5.293 2.498 5.293 5.975 0 3.476-2.353 6.047-5.293 6.047-2.941 0-5.514-2.57-5.514-6.047zm20.273-6.084h7.314v18.758h8.528V6.88h7.351V.253h-23.193V6.88zm23.904 6.048c0 7.568 5.955 13.072 14.152 13.072s14.151-5.54 14.151-13.072C235.873 5.432 229.919 0 221.722 0S207.57 5.396 207.57 12.928zm8.749.036c0-3.477 2.536-5.975 5.513-5.975 2.941 0 5.293 2.498 5.293 5.975 0 3.476-2.352 6.047-5.293 6.047-2.94 0-5.513-2.57-5.513-6.047zm23.039 12.674h8.527v-6.59h3.566c6.69 0 10.549-3.55 10.549-9.705 0-5.794-3.859-9.09-10.549-9.09h-12.093v25.385zm8.527-12.964V6.627h3.125c1.838 0 2.904 1.086 2.904 2.97 0 1.955-1.066 3.077-2.904 3.077h-3.125z" fill="#fff"/></svg>